<svg xmlns="http://www.w3.org/2000/svg" width="244" height="70" viewBox="0 0 244 70">
  <path fill="#003e6f" d="M124.365,42.97l-3.627-.514a5.309,5.309,0,0,1-2.845-1.2,2.943,2.943,0,0,1-.9-2.189c0-2.1,1.552-3.862,4.742-3.862a8.578,8.578,0,0,1,6.3,2.1l3.791-3.732c-2.628-2.532-5.691-3.561-9.917-3.561-6.641,0-10.694,3.819-10.694,9.269a8.068,8.068,0,0,0,2.2,6.007,10.476,10.476,0,0,0,5.953,2.53l3.708,0.516a4.592,4.592,0,0,1,2.721,1.074,3.4,3.4,0,0,1,.948,2.573c0,2.447-1.9,3.775-5.435,3.775-2.846,0-5.475-.642-7.417-2.573L110,57.046c3.02,3.046,6.556,4.033,11.213,4.033,6.424,0,11.384-3.347,11.384-9.269a8.513,8.513,0,0,0-2.372-6.478c-1.291-1.2-3.061-1.974-5.861-2.362m23.291-4.763a7.441,7.441,0,0,0-5.391,2.319V30.271h-5.607v30.55h5.607V47.176c0-2.918,1.856-3.946,3.622-3.946s3.666,0.985,3.666,3.946V60.821h5.608V46.361c0-4.72-2.59-8.153-7.5-8.153m12.472-3.385h5.737V30.276h-5.737v4.547Zm0.088,26h5.6V38.467h-5.6V60.821Zm27.17-20.638a7.309,7.309,0,0,0-5.3-1.975,7.7,7.7,0,0,0-5.606,2.319v-2.06H171V60.821h5.606V47.3c0-3.045,1.982-4.073,3.75-4.073s3.71,1.029,3.71,4.073V60.821h5.606V46.534a8.258,8.258,0,0,0-2.287-6.352m40.571-.731c-5.389,0-8.712,3.992-8.712,10.815,0,7.464,3.667,10.812,9.272,10.812a9.733,9.733,0,0,0,7.76-3.261l-2.11-1.845a6.982,6.982,0,0,1-5.562,2.4c-4.057,0-6.254-2.661-6.254-7.292h14.315V49.666c0-6.265-3.232-10.214-8.709-10.214m-5.606,9.313a8.883,8.883,0,0,1,.645-3.52,5.462,5.462,0,0,1,9.918,0,8.842,8.842,0,0,1,.649,3.52H222.351Zm26.53-9.313a7.66,7.66,0,0,0-5.95,2.577V39.711h-3.109v21.11h3.109v-13c0-3.689,2.068-5.62,5.259-5.62s5.218,1.889,5.218,5.62v13h3.1V47.3a7.77,7.77,0,0,0-2.2-5.875,7.453,7.453,0,0,0-5.432-1.976m24.6,2.747a6.7,6.7,0,0,0-5.951-2.747,7.4,7.4,0,0,0-5.173,1.847c-2.114,2.1-2.589,5.362-2.589,8.8s0.475,6.7,2.589,8.8a7.307,7.307,0,0,0,5.129,1.886,6.855,6.855,0,0,0,5.954-2.746v2.325c0,3.6-1.727,6.48-5.825,6.48a6.542,6.542,0,0,1-5.086-2.106L260.5,66.706a9.4,9.4,0,0,0,7.2,2.834c5.564,0,8.842-3.823,8.842-9.055V39.711h-3.065V42.2Zm-5.3,15.791c-4.614,0-5.3-3.947-5.3-7.9s0.689-7.9,5.3-7.9,5.262,3.947,5.262,7.9-0.646,7.9-5.262,7.9m20.336-18.538c-5.391,0-8.712,3.992-8.712,10.815,0,7.464,3.665,10.812,9.272,10.812a9.745,9.745,0,0,0,7.763-3.261l-2.114-1.845a6.98,6.98,0,0,1-5.561,2.4c-4.056,0-6.256-2.661-6.256-7.292h14.319V49.666c0-6.265-3.236-10.214-8.711-10.214m-5.608,9.313a8.808,8.808,0,0,1,.648-3.52,5.462,5.462,0,0,1,9.918,0,8.791,8.791,0,0,1,.648,3.52H282.907Zm32.144-7.336a7.449,7.449,0,0,0-5.432-1.976,7.668,7.668,0,0,0-5.952,2.577V39.711h-3.106v21.11h3.106v-13c0-3.69,2.069-5.621,5.261-5.621s5.22,1.888,5.22,5.621v13h3.1V47.3a7.774,7.774,0,0,0-2.2-5.875M325.6,76.1H195.12v1.457H326.467L353.85,30.271H352.2ZM202.2,96.683L196.873,88.6v8.078h-1.76V85.2h1.616l5.328,8.069V85.2h1.759V96.683H202.2Zm4.914-3.615a2.018,2.018,0,0,0,2.093,2.294,2.439,2.439,0,0,0,1.991-.843l1.059,0.985a3.883,3.883,0,0,1-3.085,1.276c-2.058,0-3.693-1.081-3.693-4.194,0-2.647,1.376-4.178,3.487-4.178,2.2,0,3.482,1.614,3.482,3.935v0.724h-5.334Zm3.47-2.253a1.8,1.8,0,0,0-3.253,0,2.491,2.491,0,0,0-.217,1.111h3.7a2.529,2.529,0,0,0-.229-1.111m11.574,5.868h-1.409l-1.928-5.71-1.915,5.71h-1.425L212.938,88.5h1.748l1.591,5.76,1.912-5.76h1.287l1.887,5.76,1.595-5.76h1.765Zm58.8,0V91.7l-3.779-6.5h1.766l2.887,4.97,2.887-4.97h1.765l-3.777,6.5v4.986h-1.749Zm10.185-.868a3.356,3.356,0,0,1-2.466.966,3.308,3.308,0,0,1-2.45-.966,4.3,4.3,0,0,1-.973-3.227,4.281,4.281,0,0,1,.973-3.209,3.29,3.29,0,0,1,2.45-.97,3.337,3.337,0,0,1,2.466.97,4.283,4.283,0,0,1,.968,3.209,4.306,4.306,0,0,1-.968,3.227m-1.249-5.47a1.689,1.689,0,0,0-1.217-.47,1.645,1.645,0,0,0-1.2.47,4.721,4.721,0,0,0,0,4.483,1.654,1.654,0,0,0,1.2.484,1.7,1.7,0,0,0,1.217-.484,4.721,4.721,0,0,0,0-4.483m8.588,6.338V95.86a2.945,2.945,0,0,1-2.191.919,2.842,2.842,0,0,1-2.022-.743,2.984,2.984,0,0,1-.828-2.306V88.5h1.65v4.984a1.592,1.592,0,0,0,1.655,1.823,1.63,1.63,0,0,0,1.7-1.823V88.5h1.657v8.178h-1.622Zm19.157-.628a2.786,2.786,0,0,1-1.989.726,2.573,2.573,0,0,1-2.16-.934v4.146h-1.652V88.5h1.623v0.874a2.527,2.527,0,0,1,2.172-.97,2.842,2.842,0,0,1,2.006.724,4.849,4.849,0,0,1,.929,3.456c0,1.24-.1,2.641-0.929,3.467m-2.43-6.179c-1.493,0-1.719,1.26-1.719,2.713s0.226,2.724,1.719,2.724,1.7-1.272,1.7-2.724-0.21-2.713-1.7-2.713m10.4,5.939a3.606,3.606,0,0,1-4.912,0,4.3,4.3,0,0,1-.975-3.227,4.277,4.277,0,0,1,.975-3.209,3.594,3.594,0,0,1,4.912,0,4.276,4.276,0,0,1,.971,3.209,4.3,4.3,0,0,1-.971,3.227m-1.248-5.47a1.68,1.68,0,0,0-1.215-.47,1.65,1.65,0,0,0-1.2.47,4.721,4.721,0,0,0,0,4.483,1.659,1.659,0,0,0,1.2.484,1.689,1.689,0,0,0,1.215-.484,4.706,4.706,0,0,0,0-4.483m11.654,6.338h-1.41l-1.928-5.71-1.913,5.71h-1.428L326.8,88.5h1.751l1.587,5.76,1.913-5.76h1.282l1.9,5.76,1.59-5.76h1.769Zm4.381-3.615a2.016,2.016,0,0,0,2.09,2.294,2.45,2.45,0,0,0,1.992-.843l1.054,0.985a3.872,3.872,0,0,1-3.08,1.276c-2.056,0-3.693-1.081-3.693-4.194,0-2.647,1.377-4.178,3.485-4.178,2.2,0,3.486,1.614,3.486,3.935v0.724H340.4Zm3.468-2.253a1.689,1.689,0,0,0-1.62-1.033,1.712,1.712,0,0,0-1.638,1.033,2.507,2.507,0,0,0-.21,1.111h3.695a2.558,2.558,0,0,0-.227-1.111M351,88.409a2.729,2.729,0,0,0-2.186.986V88.5H347.19v8.179h1.653V92.028a1.846,1.846,0,0,1,1.637-2.049,1.46,1.46,0,0,1,1.233.447l0.894-1.537A2.6,2.6,0,0,0,351,88.409m-45.19,0a2.731,2.731,0,0,0-2.186.986V88.5H302v8.179h1.652V92.028a1.847,1.847,0,0,1,1.638-2.049,1.453,1.453,0,0,1,1.231.447l0.9-1.537a2.611,2.611,0,0,0-1.61-.481m46.984,6.1a1.193,1.193,0,0,0,0,2.386,1.193,1.193,0,1,0,0-2.386M235.244,96.054a2.791,2.791,0,0,1-1.99.726,2.57,2.57,0,0,1-2.159-.934v4.146h-1.653V88.5h1.624v0.874a2.526,2.526,0,0,1,2.171-.97,2.847,2.847,0,0,1,2.007.724c0.831,0.826.928,2.212,0.928,3.456s-0.1,2.641-.928,3.467m-2.431-6.179c-1.492,0-1.718,1.26-1.718,2.713s0.226,2.724,1.718,2.724,1.7-1.272,1.7-2.724-0.21-2.713-1.7-2.713m10.4,5.939a3.606,3.606,0,0,1-4.912,0,4.308,4.308,0,0,1-.974-3.227,4.285,4.285,0,0,1,.974-3.209,3.594,3.594,0,0,1,4.912,0,4.276,4.276,0,0,1,.972,3.209,4.3,4.3,0,0,1-.972,3.227m-1.248-5.47a1.68,1.68,0,0,0-1.216-.47,1.65,1.65,0,0,0-1.2.47,4.721,4.721,0,0,0,0,4.483,1.66,1.66,0,0,0,1.2.484,1.69,1.69,0,0,0,1.216-.484,4.706,4.706,0,0,0,0-4.483m11.654,6.338h-1.409l-1.929-5.71-1.912,5.71h-1.428L244.4,88.5h1.752l1.586,5.76,1.915-5.76h1.281l1.894,5.76,1.59-5.76h1.769ZM258,93.068a2.016,2.016,0,0,0,2.089,2.294,2.452,2.452,0,0,0,1.993-.843l1.053,0.985a3.87,3.87,0,0,1-3.079,1.276c-2.056,0-3.694-1.081-3.694-4.194,0-2.647,1.377-4.178,3.485-4.178,2.2,0,3.486,1.614,3.486,3.935v0.724H258Zm3.467-2.253a1.688,1.688,0,0,0-1.62-1.033,1.713,1.713,0,0,0-1.638,1.033A2.522,2.522,0,0,0,258,91.926H261.7a2.558,2.558,0,0,0-.228-1.111m7.132-2.406a2.73,2.73,0,0,0-2.186.986V88.5h-1.623v8.179h1.653V92.028a1.847,1.847,0,0,1,1.638-2.049,1.461,1.461,0,0,1,1.233.447l0.894-1.537a2.6,2.6,0,0,0-1.609-.481m1.794,6.1a1.193,1.193,0,0,0,0,2.386,1.193,1.193,0,1,0,0-2.386M205.648,60.821a10.77,10.77,0,0,0,7.764-2.832c3.191-3.176,3.016-8.538,3.016-12.787s0.175-8.925-3.016-12.1l-1.74,3c1.545,2.253,1.48,5.728,1.48,9.1,0,3.731.086,8.281-2.026,10.469a8.016,8.016,0,0,1-6.039,2.231H198.4V33.188h6.684c2.261,0,4.937.581,6.585,2.914l1.74-3a10.776,10.776,0,0,0-7.764-2.831H195.125V60.819Z" transform="translate(-110 -30)"/>
</svg>
